<mxfile host="app.diagrams.net" modified="2022-03-12T16:37:33.519Z" agent="5.0 (Windows NT 10.0; Win64; x64) AppleWebKit/537.36 (KHTML, like Gecko) Chrome/99.0.4844.51 Safari/537.36 Edg/99.0.1150.39" etag="IyuSHkdwurZ4kW8UM5sa" version="16.6.7" type="github">
  <diagram name="Page-1" id="5f0bae14-7c28-e335-631c-24af17079c00">
    <mxGraphModel dx="1145" dy="575" grid="1" gridSize="10" guides="1" tooltips="1" connect="1" arrows="1" fold="1" page="1" pageScale="1" pageWidth="1100" pageHeight="850" background="none" math="0" shadow="0">
      <root>
        <mxCell id="0" />
        <mxCell id="1" parent="0" />
        <mxCell id="39150e848f15840c-3" value="Back-end (Hosted in EC2)" style="verticalAlign=top;align=left;spacingTop=8;spacingLeft=2;spacingRight=12;shape=cube;size=10;direction=south;fontStyle=4;html=1;rounded=0;shadow=0;comic=0;labelBackgroundColor=none;strokeWidth=1;fontFamily=Verdana;fontSize=12" parent="1" vertex="1">
          <mxGeometry x="300" y="80" width="610" height="140" as="geometry" />
        </mxCell>
        <mxCell id="39150e848f15840c-1" value="Front-end (Hosted in S3)" style="verticalAlign=top;align=left;spacingTop=8;spacingLeft=2;spacingRight=12;shape=cube;size=10;direction=south;fontStyle=4;html=1;rounded=0;shadow=0;comic=0;labelBackgroundColor=none;strokeWidth=1;fontFamily=Verdana;fontSize=12" parent="1" vertex="1">
          <mxGeometry x="40" y="80" width="190" height="150" as="geometry" />
        </mxCell>
        <mxCell id="BBh0toNvlw1_HTApZLQE-22" style="edgeStyle=orthogonalEdgeStyle;rounded=0;orthogonalLoop=1;jettySize=auto;html=1;exitX=1;exitY=0.5;exitDx=0;exitDy=0;entryX=0;entryY=0.5;entryDx=0;entryDy=0;" edge="1" parent="1" source="39150e848f15840c-5" target="BBh0toNvlw1_HTApZLQE-18">
          <mxGeometry relative="1" as="geometry">
            <mxPoint x="320" y="170" as="targetPoint" />
            <Array as="points" />
          </mxGeometry>
        </mxCell>
        <mxCell id="39150e848f15840c-5" value="Angular" style="shape=component;align=left;spacingLeft=36;rounded=0;shadow=0;comic=0;labelBackgroundColor=none;strokeWidth=1;fontFamily=Verdana;fontSize=12;html=1;" parent="1" vertex="1">
          <mxGeometry x="70" y="130" width="120" height="60" as="geometry" />
        </mxCell>
        <mxCell id="BBh0toNvlw1_HTApZLQE-40" style="edgeStyle=orthogonalEdgeStyle;rounded=0;orthogonalLoop=1;jettySize=auto;html=1;exitX=1;exitY=0.5;exitDx=0;exitDy=0;startArrow=none;" edge="1" parent="1" source="BBh0toNvlw1_HTApZLQE-50" target="BBh0toNvlw1_HTApZLQE-38">
          <mxGeometry relative="1" as="geometry">
            <mxPoint x="620" y="160" as="sourcePoint" />
          </mxGeometry>
        </mxCell>
        <mxCell id="BBh0toNvlw1_HTApZLQE-31" style="edgeStyle=orthogonalEdgeStyle;rounded=0;orthogonalLoop=1;jettySize=auto;html=1;exitX=0.5;exitY=1;exitDx=0;exitDy=0;entryX=-0.002;entryY=0.636;entryDx=0;entryDy=0;entryPerimeter=0;" edge="1" parent="1" source="BBh0toNvlw1_HTApZLQE-32">
          <mxGeometry relative="1" as="geometry">
            <mxPoint x="590.1200000000001" y="269.9599999999999" as="targetPoint" />
            <Array as="points">
              <mxPoint x="590" y="270.37" />
            </Array>
          </mxGeometry>
        </mxCell>
        <mxCell id="BBh0toNvlw1_HTApZLQE-18" value="HTTP" style="ellipse;whiteSpace=wrap;html=1;rounded=0;shadow=0;comic=0;labelBackgroundColor=none;strokeWidth=1;fontFamily=Verdana;fontSize=12;align=center;" vertex="1" parent="1">
          <mxGeometry x="240" y="140" width="40" height="40" as="geometry" />
        </mxCell>
        <mxCell id="BBh0toNvlw1_HTApZLQE-19" style="edgeStyle=elbowEdgeStyle;rounded=0;html=1;labelBackgroundColor=none;startArrow=none;startFill=0;startSize=8;endArrow=none;endFill=0;endSize=16;fontFamily=Verdana;fontSize=12;exitX=1;exitY=0.5;exitDx=0;exitDy=0;" edge="1" parent="1" source="BBh0toNvlw1_HTApZLQE-18">
          <mxGeometry relative="1" as="geometry">
            <mxPoint x="330" y="160" as="targetPoint" />
            <mxPoint x="300" y="160" as="sourcePoint" />
          </mxGeometry>
        </mxCell>
        <mxCell id="BBh0toNvlw1_HTApZLQE-26" value="AWS" style="verticalAlign=top;align=left;spacingTop=8;spacingLeft=2;spacingRight=12;shape=cube;size=10;direction=south;fontStyle=4;html=1;rounded=0;shadow=0;comic=0;labelBackgroundColor=none;strokeWidth=1;fontFamily=Verdana;fontSize=12" vertex="1" parent="1">
          <mxGeometry x="365" y="270" width="450" height="100" as="geometry" />
        </mxCell>
        <mxCell id="BBh0toNvlw1_HTApZLQE-28" value="DynamoDB &lt;br&gt;(NoSQL)" style="shape=component;align=center;spacingLeft=36;rounded=0;shadow=0;comic=0;labelBackgroundColor=none;strokeWidth=1;fontFamily=Verdana;fontSize=12;html=1;" vertex="1" parent="1">
          <mxGeometry x="675" y="297" width="120" height="55" as="geometry" />
        </mxCell>
        <mxCell id="BBh0toNvlw1_HTApZLQE-29" value="S3 (Files)" style="shape=component;align=left;spacingLeft=36;rounded=0;shadow=0;comic=0;labelBackgroundColor=none;strokeWidth=1;fontFamily=Verdana;fontSize=12;html=1;" vertex="1" parent="1">
          <mxGeometry x="535" y="295" width="120" height="60" as="geometry" />
        </mxCell>
        <mxCell id="BBh0toNvlw1_HTApZLQE-30" value="RDS (MySQL)" style="shape=component;align=left;spacingLeft=36;rounded=0;shadow=0;comic=0;labelBackgroundColor=none;strokeWidth=1;fontFamily=Verdana;fontSize=12;html=1;" vertex="1" parent="1">
          <mxGeometry x="395" y="295" width="130" height="60" as="geometry" />
        </mxCell>
        <mxCell id="BBh0toNvlw1_HTApZLQE-32" value="AWS SDK" style="ellipse;whiteSpace=wrap;html=1;rounded=0;shadow=0;comic=0;labelBackgroundColor=none;strokeWidth=1;fontFamily=Verdana;fontSize=12;align=center;" vertex="1" parent="1">
          <mxGeometry x="570" y="200" width="40" height="39.63" as="geometry" />
        </mxCell>
        <mxCell id="BBh0toNvlw1_HTApZLQE-34" style="edgeStyle=elbowEdgeStyle;rounded=0;html=1;labelBackgroundColor=none;startArrow=none;startFill=0;startSize=8;endArrow=none;endFill=0;endSize=16;fontFamily=Verdana;fontSize=12;exitX=0.582;exitY=1.02;exitDx=0;exitDy=0;exitPerimeter=0;" edge="1" parent="1">
          <mxGeometry relative="1" as="geometry">
            <mxPoint x="590" y="200.37" as="targetPoint" />
            <mxPoint x="589.8399999999999" y="190.57" as="sourcePoint" />
            <Array as="points" />
          </mxGeometry>
        </mxCell>
        <mxCell id="BBh0toNvlw1_HTApZLQE-38" value="&lt;div&gt;&lt;span&gt;Redis&lt;/span&gt;&lt;/div&gt;&lt;div&gt;&lt;span&gt;(NoSQL)&lt;/span&gt;&lt;/div&gt;" style="shape=component;align=center;spacingLeft=36;rounded=0;shadow=0;comic=0;labelBackgroundColor=none;strokeWidth=1;fontFamily=Verdana;fontSize=12;html=1;" vertex="1" parent="1">
          <mxGeometry x="770" y="130" width="100" height="60" as="geometry" />
        </mxCell>
        <mxCell id="BBh0toNvlw1_HTApZLQE-44" value="Spring Boot" style="shape=component;align=left;spacingLeft=36;rounded=0;shadow=0;comic=0;labelBackgroundColor=none;strokeWidth=1;fontFamily=Verdana;fontSize=12;html=1;" vertex="1" parent="1">
          <mxGeometry x="525" y="130" width="120" height="60" as="geometry" />
        </mxCell>
        <mxCell id="BBh0toNvlw1_HTApZLQE-47" style="edgeStyle=orthogonalEdgeStyle;rounded=0;orthogonalLoop=1;jettySize=auto;html=1;exitX=1.005;exitY=0.482;exitDx=0;exitDy=0;exitPerimeter=0;" edge="1" parent="1" source="BBh0toNvlw1_HTApZLQE-45">
          <mxGeometry relative="1" as="geometry">
            <mxPoint x="510" y="170" as="sourcePoint" />
            <mxPoint x="520" y="159" as="targetPoint" />
            <Array as="points" />
          </mxGeometry>
        </mxCell>
        <mxCell id="BBh0toNvlw1_HTApZLQE-45" value="&lt;div&gt;&lt;span&gt;Nginx&lt;/span&gt;&lt;/div&gt;&lt;div&gt;&lt;span&gt;(Reverse proxy)&lt;/span&gt;&lt;/div&gt;" style="shape=component;align=center;spacingLeft=36;rounded=0;shadow=0;comic=0;labelBackgroundColor=none;strokeWidth=1;fontFamily=Verdana;fontSize=12;html=1;" vertex="1" parent="1">
          <mxGeometry x="330" y="120" width="140" height="80" as="geometry" />
        </mxCell>
        <mxCell id="BBh0toNvlw1_HTApZLQE-50" value="Hibernate" style="ellipse;whiteSpace=wrap;html=1;rounded=0;shadow=0;comic=0;labelBackgroundColor=none;strokeWidth=1;fontFamily=Verdana;fontSize=12;align=center;" vertex="1" parent="1">
          <mxGeometry x="670" y="140.37" width="70" height="39.63" as="geometry" />
        </mxCell>
        <mxCell id="BBh0toNvlw1_HTApZLQE-52" value="" style="edgeStyle=orthogonalEdgeStyle;rounded=0;orthogonalLoop=1;jettySize=auto;html=1;endArrow=none;exitX=1;exitY=0.5;exitDx=0;exitDy=0;" edge="1" parent="1" source="BBh0toNvlw1_HTApZLQE-44" target="BBh0toNvlw1_HTApZLQE-50">
          <mxGeometry relative="1" as="geometry">
            <mxPoint x="650" y="160" as="sourcePoint" />
            <mxPoint x="770" y="160" as="targetPoint" />
          </mxGeometry>
        </mxCell>
      </root>
    </mxGraphModel>
  </diagram>
</mxfile>
